# xmcd
#
# Track frame offsets:
#	150
#	13708
#	24046
#	34874
#	46570
#	57172
#	68787
#	79745
#	92531
#	103844
#	116207
#	128689
#	137239
#	149005
#	160993
#	172750
#	187040
#	196363
#	208232
#	216729
#
# Disc length: 3030 seconds
#
# Revision: 0
# Processed by: cddbd v1.5.2PL0 Copyright (c) Steve Scherf et al.
# Submitted via: EasyCDDAExtractor 16.0.6.1
#
DISCID=220bd414
DTITLE=Artisti Vari - Country and Western Ladies [CD05)
DYEAR=2014
DGENRE=country
TTITLE0=Goldie Hill - Say Big Boy
TTITLE1=Kitty Wells - He Lost His Love For Me
TTITLE2=Skeeter Davis - He Left His Heart With Me
TTITLE3=Patsy Cline - In Care Of The Blues
TTITLE4=The Dezurik Sisters - I Left Her Standing There
TTITLE5=Wilma Lee and Stoney Cooper - Big Midnight Special
TTITLE6=The Maddox Brothers and Rose - Hasty Baby
TTITLE7=Patsy Montana - Echoes From The Hill
TTITLE8=Kitty Wells - Mommy For A Day
TTITLE9=Patsy Cline - A Poor Man's Roses
TTITLE10=Hean Shepard - My Wedding Ring
TTITLE11=Rose Maddox - My Little Baby
TTITLE12=Wanda Jackson - Sinful Heart
TTITLE13=Kitty Wells - Three Ways (To Love You)
TTITLE14=Goldie Hill - Don't Send No More Roses
TTITLE15=Patsy Cline - Lone Star
TTITLE16=Skeeter Davis - Don't Let Your Lips Say Yes
TTITLE17=Patsy Cline - Let The Teardrops Fall
TTITLE18=The Maddox Brothers and Rose - I've Got Four Big Brothers (To Look Afte
TTITLE18=r Me)
TTITLE19=Wilma Lee and Stoney Cooper - Come Walk With Me
EXTD=
EXTT0=
EXTT1=
EXTT2=
EXTT3=
EXTT4=
EXTT5=
EXTT6=
EXTT7=
EXTT8=
EXTT9=
EXTT10=
EXTT11=
EXTT12=
EXTT13=
EXTT14=
EXTT15=
EXTT16=
EXTT17=
EXTT18=
EXTT19=
PLAYORDER=
